<svg width="16" height="16" viewBox="0 0 16 16" fill="none" xmlns="http://www.w3.org/2000/svg">
<path d="M8.0001 11.1765C9.16964 11.1765 10.1177 10.2284 10.1177 9.05881C10.1177 7.88927 9.16964 6.94116 8.0001 6.94116C6.83055 6.94116 5.88245 7.88927 5.88245 9.05881C5.88245 10.2284 6.83055 11.1765 8.0001 11.1765Z" stroke="black" stroke-width="1.5" stroke-linecap="round" stroke-linejoin="round"/>
<path d="M3.05886 4.82L4.47063 4.82355C4.84505 4.82355 5.20414 4.67481 5.4689 4.41005C5.73365 4.14529 5.88239 3.7862 5.88239 3.41178C5.88239 3.22457 5.95676 3.04502 6.08914 2.91264C6.51261 2.48918 7.46859 2.7059 8.00004 2.7059C7.14636 2.64731 6.5 2.5 6.08914 2.86126C5.93411 2.99758 5.86752 3.61621 5.69694 4.11124C5.64562 4.18823 5.27437 4.64595 4.74974 4.79569C4 4.79569 3.39724 4.82085 3.05886 4.82ZM3.05886 4.82C2.68444 4.82 2.32535 4.97229 2.06059 5.23704C1.79583 5.5018 1.64709 5.86089 1.64709 6.23531V12.5883C1.64709 12.9627 1.79583 13.3218 2.06059 13.5865C2.32535 13.8513 2.68444 14 3.05886 14H12.9412C13.3156 14 13.6747 13.8513 13.9395 13.5865C14.2042 13.3218 14.353 12.9627 14.353 12.5883V7.64707" stroke="black" stroke-width="1.5" stroke-linecap="round" stroke-linejoin="round"/>
<path d="M10.1177 4.11765H14.353" stroke="black" stroke-width="1.5" stroke-linecap="round" stroke-linejoin="round"/>
<path d="M12.2354 2V6.2353" stroke="black" stroke-width="1.5" stroke-linecap="round" stroke-linejoin="round"/>
</svg>
