<svg width="15" height="16" viewBox="0 0 15 16" fill="none" xmlns="http://www.w3.org/2000/svg">
<path d="M5.14286 2.5556H3.57143C3.15466 2.5556 2.75496 2.71949 2.46026 3.01121C2.16556 3.30294 2 3.6986 2 4.11115V13.4445C2 13.857 2.16556 14.2527 2.46026 14.5444C2.75496 14.8361 3.15466 15 3.57143 15H11.4286C11.8453 15 12.245 14.8361 12.5397 14.5444C12.8344 14.2527 13 13.857 13 13.4445V4.11115C13 3.6986 12.8344 3.30294 12.5397 3.01121C12.245 2.71949 11.8453 2.5556 11.4286 2.5556H9.85714" stroke="black" stroke-width="1.5" stroke-linecap="round" stroke-linejoin="round"/>
<path d="M8.28568 1H6.71425C5.84637 1 5.14282 1.69644 5.14282 2.55555C5.14282 3.41466 5.84637 4.1111 6.71425 4.1111H8.28568C9.15355 4.1111 9.85711 3.41466 9.85711 2.55555C9.85711 1.69644 9.15355 1 8.28568 1Z" stroke="black" stroke-width="1.5" stroke-linecap="round" stroke-linejoin="round"/>
<path d="M5.14282 9.55558L6.71425 11.1111L9.85711 8.00003" stroke="black" stroke-width="1.5" stroke-linecap="round" stroke-linejoin="round"/>
</svg>
