<svg width="15" height="16" viewBox="0 0 15 16" fill="none" xmlns="http://www.w3.org/2000/svg">
<path d="M5.14286 2.55557H3.57143C3.15466 2.55557 2.75496 2.71946 2.46026 3.01118C2.16556 3.30291 2 3.69857 2 4.11113V13.4444C2 13.857 2.16556 14.2527 2.46026 14.5444C2.75496 14.8361 3.15466 15 3.57143 15H11.4286C11.8453 15 12.245 14.8361 12.5397 14.5444C12.8344 14.2527 13 13.857 13 13.4444V4.11113C13 3.69857 12.8344 3.30291 12.5397 3.01118C12.245 2.71946 11.8453 2.55557 11.4286 2.55557H9.85714" stroke="black" stroke-width="1.5" stroke-linecap="round" stroke-linejoin="round"/>
<path d="M8.28568 1H6.71425C5.84637 1 5.14282 1.69645 5.14282 2.55555C5.14282 3.41466 5.84637 4.11111 6.71425 4.11111H8.28568C9.15356 4.11111 9.85711 3.41466 9.85711 2.55555C9.85711 1.69645 9.15356 1 8.28568 1Z" stroke="black" stroke-width="1.5" stroke-linecap="round" stroke-linejoin="round"/>
</svg>
