<svg width="16" height="16" viewBox="0 0 16 16" fill="none" xmlns="http://www.w3.org/2000/svg">
<path d="M7.87506 8.49127C8.27339 8.49127 8.59631 8.16835 8.59631 7.77002C8.59631 7.37168 8.27339 7.04877 7.87506 7.04877C7.47672 7.04877 7.15381 7.37168 7.15381 7.77002C7.15381 8.16835 7.47672 8.49127 7.87506 8.49127Z" stroke="black" stroke-width="1.5" stroke-linecap="round" stroke-linejoin="round"/>
<path d="M7.87506 13.54C8.27339 13.54 8.59631 13.2171 8.59631 12.8188C8.59631 12.4204 8.27339 12.0975 7.87506 12.0975C7.47672 12.0975 7.15381 12.4204 7.15381 12.8188C7.15381 13.2171 7.47672 13.54 7.87506 13.54Z" stroke="black" stroke-width="1.5" stroke-linecap="round" stroke-linejoin="round"/>
<path d="M7.87506 3.4425C8.27339 3.4425 8.59631 3.11958 8.59631 2.72125C8.59631 2.32291 8.27339 2 7.87506 2C7.47672 2 7.15381 2.32291 7.15381 2.72125C7.15381 3.11958 7.47672 3.4425 7.87506 3.4425Z" stroke="black" stroke-width="1.5" stroke-linecap="round" stroke-linejoin="round"/>
</svg>
