<svg width="15" height="16" viewBox="0 0 15 16" fill="none" xmlns="http://www.w3.org/2000/svg">
<path d="M9.07141 1V4.11111C9.07141 4.31739 9.15419 4.51522 9.30154 4.66108C9.44889 4.80695 9.64874 4.88889 9.85713 4.88889H13" stroke="black" stroke-width="1.5" stroke-linecap="round" stroke-linejoin="round"/>
<path d="M11.4286 15H3.57143C3.15466 15 2.75496 14.8361 2.46026 14.5444C2.16556 14.2527 2 13.857 2 13.4444V2.55556C2 2.143 2.16556 1.74733 2.46026 1.45561C2.75496 1.16389 3.15466 1 3.57143 1H9.07143L13 4.88889V13.4444C13 13.857 12.8344 14.2527 12.5397 14.5444C12.245 14.8361 11.8453 15 11.4286 15Z" stroke="black" stroke-width="1.5" stroke-linecap="round" stroke-linejoin="round"/>
</svg>
