<svg width="16" height="16" viewBox="0 0 16 16" fill="none" xmlns="http://www.w3.org/2000/svg">
<path d="M2.42858 2H13.5714C13.6949 2.04329 13.8068 2.11427 13.8986 2.20748C13.9903 2.3007 14.0596 2.41369 14.1009 2.53779C14.1423 2.66189 14.1547 2.79382 14.1372 2.92346C14.1197 3.0531 14.0728 3.17701 14 3.28571L9.71429 8V14L6.28572 11.4286V8L2 3.28571C1.92723 3.17701 1.88029 3.0531 1.8628 2.92346C1.84531 2.79382 1.85772 2.66189 1.89909 2.53779C1.94046 2.41369 2.00968 2.3007 2.10146 2.20748C2.19324 2.11427 2.30513 2.04329 2.42858 2Z" stroke="black" stroke-width="1.5" stroke-linecap="round" stroke-linejoin="round"/>
</svg>
