<svg width="16" height="16" viewBox="0 0 16 16" fill="none" xmlns="http://www.w3.org/2000/svg">
<path d="M10.25 5.00003H10.2567" stroke="black" stroke-width="1.5" stroke-linecap="round" stroke-linejoin="round"/>
<path d="M11.75 2H4.25C3.00736 2 2 3.00736 2 4.25V11.75C2 12.9926 3.00736 14 4.25 14H11.75C12.9926 14 14 12.9926 14 11.75V4.25C14 3.00736 12.9926 2 11.75 2Z" stroke="black" stroke-width="1.5" stroke-linecap="round" stroke-linejoin="round"/>
<path d="M2 10.25L5 7.24999C5.34204 6.92086 5.73004 6.74759 6.125 6.74759C6.51996 6.74759 6.90796 6.92086 7.25 7.24999L11 11" stroke="black" stroke-width="1.5" stroke-linecap="round" stroke-linejoin="round"/>
<path d="M9.50012 9.50002L10.2501 8.75002C10.5922 8.42089 10.9802 8.24762 11.3751 8.24762C11.7701 8.24762 12.1581 8.42089 12.5001 8.75002L14.0001 10.25" stroke="black" stroke-width="1.5" stroke-linecap="round" stroke-linejoin="round"/>
</svg>
