<svg width="16" height="16" viewBox="0 0 16 16" fill="none" xmlns="http://www.w3.org/2000/svg">
<path d="M5.66665 2.55557H4.1111C3.69854 2.55557 3.30288 2.71946 3.01115 3.01118C2.71943 3.30291 2.55554 3.69857 2.55554 4.11113V13.4445C2.55554 13.857 2.71943 14.2527 3.01115 14.5444C3.30288 14.8361 3.69854 15 4.1111 15H11.8889C12.3014 15 12.6971 14.8361 12.9888 14.5444C13.2805 14.2527 13.4444 13.857 13.4444 13.4445V4.11113C13.4444 3.69857 13.2805 3.30291 12.9888 3.01118C12.6971 2.71946 12.3014 2.55557 11.8889 2.55557H10.3333" stroke="black" stroke-width="1.5" stroke-linecap="round" stroke-linejoin="round"/>
<path d="M8.77773 1H7.22218C6.36307 1 5.66663 1.69645 5.66663 2.55555C5.66663 3.41466 6.36307 4.11111 7.22218 4.11111H8.77773C9.63684 4.11111 10.3333 3.41466 10.3333 2.55555C10.3333 1.69645 9.63684 1 8.77773 1Z" stroke="black" stroke-width="1.5" stroke-linecap="round" stroke-linejoin="round"/>
<path d="M5.66663 11.8889V8" stroke="black" stroke-width="1.5" stroke-linecap="round" stroke-linejoin="round"/>
<path d="M7.99988 11.8889V11.1111" stroke="black" stroke-width="1.5" stroke-linecap="round" stroke-linejoin="round"/>
<path d="M10.3333 11.8889V9.55557" stroke="black" stroke-width="1.5" stroke-linecap="round" stroke-linejoin="round"/>
</svg>
