<svg width="316" height="342" viewBox="0 0 316 342" fill="none" xmlns="http://www.w3.org/2000/svg">
<g clip-path="url(#clip0_692_5204)">
<path d="M297.61 1H18.01C9.37 1 2.37 8.08 2.37 16.82V171.94C2.37 176.18 5.77 179.62 9.97 179.62H22.84C22.84 181.61 23.14 186.36 26.21 191.26C29.49 196.48 34.01 198.82 35.81 199.64C35.33 198.35 33.52 193.04 35.93 187.14C37.66 182.91 40.66 180.55 41.99 179.62H298.85C307.49 179.62 314.5 172.54 314.5 163.8V19.79C314.5 9.41 306.94 1 297.61 1Z" fill="#FAFAFA"/>
<path d="M170.1 72.3101H146.71C145.202 72.3101 143.98 73.5323 143.98 75.0401V152.9C143.98 154.408 145.202 155.63 146.71 155.63H170.1C171.608 155.63 172.83 154.408 172.83 152.9V75.0401C172.83 73.5323 171.608 72.3101 170.1 72.3101Z" fill="#8271FF"/>
<path d="M261.93 178.5V75.4003C261.93 73.7003 263.32 72.3203 265.01 72.3203H287.69C289.39 72.3203 290.77 73.7103 290.77 75.4003V178.5H261.92H261.93Z" fill="#8271FF"/>
<path d="M90.27 49.3599H67.28C65.6618 49.3599 64.35 50.6717 64.35 52.2899V142.27C64.35 143.888 65.6618 145.2 67.28 145.2H90.27C91.8882 145.2 93.2 143.888 93.2 142.27V52.2899C93.2 50.6717 91.8882 49.3599 90.27 49.3599Z" fill="#8271FF"/>
<path d="M183.68 179.62V97.9302C183.68 96.4202 184.92 95.1802 186.43 95.1802H209.78C211.29 95.1802 212.53 96.4202 212.53 97.9302V179.62H183.68Z" fill="#EFEFEF"/>
<path d="M24.9199 188.63V71.0599C24.9199 69.3199 26.3399 67.8999 28.0799 67.8999H50.5999C52.3399 67.8999 53.7599 69.3199 53.7599 71.0599V179.62H41.9799C40.6899 180.5 37.6099 182.85 35.9199 187.14C33.5099 193.26 35.7499 198.71 36.2399 199.83C34.5099 199.11 31.6499 197.65 28.9799 194.82C26.8199 192.53 25.5899 190.21 24.9099 188.62L24.9199 188.63Z" fill="#EFEFEF"/>
<path d="M103.56 179.62V52.7701C103.56 50.8901 105.1 49.3501 106.98 49.3501H129C130.88 49.3501 132.42 50.8901 132.42 52.7701V179.62H103.57H103.56Z" fill="#EFEFEF"/>
<path d="M247.9 49.3599H224.51C223.002 49.3599 221.78 50.5821 221.78 52.0899V129.95C221.78 131.458 223.002 132.68 224.51 132.68H247.9C249.408 132.68 250.63 131.458 250.63 129.95V52.0899C250.63 50.5821 249.408 49.3599 247.9 49.3599Z" fill="#EFEFEF"/>
<path d="M293.97 21.3501H21.2C16.9971 21.3501 13.59 24.7572 13.59 28.9601V32.8201C13.59 37.023 16.9971 40.4301 21.2 40.4301H293.97C298.173 40.4301 301.58 37.023 301.58 32.8201V28.9601C301.58 24.7572 298.173 21.3501 293.97 21.3501Z" fill="#EFEFEF"/>
<path d="M53.05 179.92H41.82C40.57 180.73 37.46 182.98 35.77 187.19C33.3 193.34 35.79 198.86 36.25 199.83C34.46 199.08 29.89 196.89 26.49 191.78C23.16 186.79 22.84 181.87 22.81 179.92H14.34C13.45 179.92 9 179.82 5.36 176.26C1.59 172.57 1.5 167.93 1.5 167.08V70.4102" stroke="black" stroke-width="2" stroke-miterlimit="10" stroke-linecap="round"/>
<path d="M226.25 1H297.27C306.78 1 314.5 8.71 314.5 18.23V168.86" stroke="black" stroke-width="2" stroke-miterlimit="10" stroke-linecap="round"/>
<path d="M95.15 179.62H282.7" stroke="black" stroke-width="2" stroke-miterlimit="10" stroke-linecap="round"/>
<path d="M291.64 334.92H212.87C206.18 334.92 200.75 329.49 200.75 322.8V166.34C200.75 159.65 206.18 154.22 212.87 154.22H247.24H265.81H291.64C298.33 154.22 303.76 159.65 303.76 166.34V322.8C303.76 329.49 298.33 334.92 291.64 334.92Z" fill="#FAFAFA"/>
<path d="M222.83 334.92H291.64C298.33 334.92 303.76 329.49 303.76 322.8" stroke="black" stroke-width="2" stroke-miterlimit="10" stroke-linecap="round"/>
<path d="M232.41 154.22H212.87C206.18 154.22 200.75 159.65 200.75 166.34" stroke="black" stroke-width="2" stroke-miterlimit="10" stroke-linecap="round"/>
<path d="M257.8 154.22H279.01H291.64C298.33 154.22 303.76 159.65 303.76 166.34V234.65" stroke="black" stroke-width="2" stroke-miterlimit="10" stroke-linecap="round"/>
<path d="M275.89 312.41H215.61C212.523 312.41 210.02 314.913 210.02 318V318.94C210.02 322.027 212.523 324.53 215.61 324.53H275.89C278.977 324.53 281.48 322.027 281.48 318.94V318C281.48 314.913 278.977 312.41 275.89 312.41Z" fill="#EFEFEF"/>
<path d="M292.98 170.06H221.12C217.773 170.06 215.06 172.773 215.06 176.12C215.06 179.467 217.773 182.18 221.12 182.18H292.98C296.327 182.18 299.04 179.467 299.04 176.12C299.04 172.773 296.327 170.06 292.98 170.06Z" fill="#EFEFEF"/>
<path d="M294.52 284.8H208.78C207.416 284.8 206.31 285.906 206.31 287.27V304.07C206.31 305.434 207.416 306.54 208.78 306.54H294.52C295.884 306.54 296.99 305.434 296.99 304.07V287.27C296.99 285.906 295.884 284.8 294.52 284.8Z" fill="#EFEFEF"/>
<path d="M294.53 253.42H208.73C207.366 253.42 206.26 254.526 206.26 255.89V272.69C206.26 274.054 207.366 275.16 208.73 275.16H294.53C295.894 275.16 297 274.054 297 272.69V255.89C297 254.526 295.894 253.42 294.53 253.42Z" fill="#EFEFEF"/>
<path d="M294.35 186.89H265.3C263.947 186.89 262.85 187.987 262.85 189.34V241.32C262.85 242.673 263.947 243.77 265.3 243.77H294.35C295.703 243.77 296.8 242.673 296.8 241.32V189.34C296.8 187.987 295.703 186.89 294.35 186.89Z" fill="#EFEFEF"/>
<path d="M255.23 186.89H226.18C224.827 186.89 223.73 187.987 223.73 189.34V241.32C223.73 242.673 224.827 243.77 226.18 243.77H255.23C256.583 243.77 257.68 242.673 257.68 241.32V189.34C257.68 187.987 256.583 186.89 255.23 186.89Z" fill="#EFEFEF"/>
<path d="M226.05 103.6H132.2C126.097 103.6 121.15 108.547 121.15 114.65V256.65C121.15 262.753 126.097 267.7 132.2 267.7H226.05C232.153 267.7 237.1 262.753 237.1 256.65V114.65C237.1 108.547 232.153 103.6 226.05 103.6Z" fill="#FAFAFA"/>
<path d="M121.15 135.22V114.66C121.15 113.92 121.22 110.01 124.39 106.84C126.39 104.84 129.15 103.6 132.21 103.6H226.05C232.16 103.6 237.1 108.55 237.1 114.65V137.39" stroke="black" stroke-width="2" stroke-miterlimit="10" stroke-linecap="round"/>
<path d="M237.09 163.61V256.64C237.09 262.75 232.14 267.69 226.04 267.69H132.2C126.09 267.69 121.15 262.74 121.15 256.64V211.74" stroke="black" stroke-width="2" stroke-miterlimit="10" stroke-linecap="round"/>
<path d="M133.74 132.67H226.32C227.739 132.67 228.89 131.519 228.89 130.1V113.55C228.89 112.131 227.739 110.98 226.32 110.98L133.74 110.98C132.321 110.98 131.17 112.131 131.17 113.55V130.1C131.17 131.519 132.321 132.67 133.74 132.67Z" fill="#EFEFEF"/>
<path d="M132.83 234.51H225.41C226.829 234.51 227.98 233.36 227.98 231.94V215.39C227.98 213.971 226.829 212.82 225.41 212.82H132.83C131.411 212.82 130.26 213.971 130.26 215.39V231.94C130.26 233.36 131.411 234.51 132.83 234.51Z" fill="#EFEFEF"/>
<path d="M134.36 205.8H175.92C177.682 205.8 179.11 204.372 179.11 202.61V140.6C179.11 138.838 177.682 137.41 175.92 137.41H134.36C132.598 137.41 131.17 138.838 131.17 140.6V202.61C131.17 204.372 132.598 205.8 134.36 205.8Z" fill="#EFEFEF"/>
<path d="M185.28 157.35H227.22C228.142 157.35 228.89 156.602 228.89 155.68V139.08C228.89 138.158 228.142 137.41 227.22 137.41H185.28C184.358 137.41 183.61 138.158 183.61 139.08V155.68C183.61 156.602 184.358 157.35 185.28 157.35Z" fill="#EFEFEF"/>
<path d="M185.28 181.57H227.22C228.142 181.57 228.89 180.823 228.89 179.9V163.3C228.89 162.378 228.142 161.63 227.22 161.63H185.28C184.358 161.63 183.61 162.378 183.61 163.3V179.9C183.61 180.823 184.358 181.57 185.28 181.57Z" fill="#EFEFEF"/>
<path d="M185.28 204.69H227.22C228.142 204.69 228.89 203.942 228.89 203.02V186.42C228.89 185.498 228.142 184.75 227.22 184.75H185.28C184.358 184.75 183.61 185.498 183.61 186.42V203.02C183.61 203.942 184.358 204.69 185.28 204.69Z" fill="#EFEFEF"/>
<path d="M86.62 178.33L85.9 176.67C85.69 176.2 85.16 175.96 84.68 176.12L82.13 176.96C81.68 177.11 81.18 176.92 80.95 176.5L79.33 173.61C78.98 172.98 78.1 172.92 77.66 173.5L73.61 178.88C73.15 179.49 72.21 179.38 71.9 178.69L69.42 173.15C69.14 172.53 68.33 172.36 67.83 172.82L64.15 176.21C63.62 176.7 62.75 176.48 62.53 175.78L61.08 171.32C60.85 170.61 59.95 170.4 59.42 170.92L53.96 176.4C53.66 176.7 53.2 176.78 52.82 176.59L39.43 170.09C39.26 170.01 39.08 169.98 38.89 170L17.39 172.22C16.64 172.3 16.08 171.55 16.36 170.86L19.78 162.33C19.99 161.8 19.71 161.19 19.17 161.01L10.59 158.15C9.95996 157.94 9.70996 157.18 10.08 156.64L17.89 145.32C18.08 145.04 18.12 144.69 17.99 144.37L12.23 130.38C11.96 129.73 12.43 129.02 13.13 129L26.96 128.65C27.32 128.65 27.64 128.44 27.81 128.13L36.33 112.59C36.47 112.34 36.7 112.16 36.98 112.1C37.64 111.95 37.96 111.2 37.61 110.62L36.26 108.35C35.94 107.82 36.18 107.13 36.76 106.91L39.49 105.86C40.15 105.61 40.34 104.77 39.86 104.25L32.36 96.1201C31.75 95.4601 32.25 94.4001 33.15 94.4501L55.22 95.6101C55.59 95.6301 55.95 95.4401 56.14 95.1101L62.41 84.2601C62.69 83.7801 63.3 83.6201 63.78 83.9001L72.32 88.9401C72.63 89.1301 73.02 89.1201 73.34 88.9401L76.52 87.0401C76.82 86.8601 77 86.5401 77.01 86.1901L77.15 64.0301C77.15 63.1501 78.22 62.7101 78.85 63.3201L96.83 80.9001C97 81.0601 97.2199 81.1601 97.45 81.1801L113.67 82.4501C114.42 82.5101 114.84 83.3501 114.43 83.9901L107.94 93.9801C107.71 94.3301 107.73 94.7901 107.98 95.1301L109.76 97.4801C109.99 97.7901 110.38 97.9301 110.76 97.8501L111.74 97.6401C112.13 97.5601 112.53 97.7101 112.76 98.0401L118.05 105.46C118.32 105.85 118.29 106.37 117.97 106.72L117.88 106.81C117.55 107.17 117.53 107.71 117.82 108.09L122.15 113.79L120.43 114.15L120.67 114.46L134.86 120.8C135.31 121 135.54 121.5 135.42 121.97L132.08 134.35C131.97 134.74 132.11 135.15 132.43 135.4L147.29 146.84C147.98 147.37 147.71 148.46 146.85 148.61L135.57 150.58C135.33 150.62 135.11 150.75 134.96 150.95L129.23 158.28C129.05 158.51 128.98 158.81 129.04 159.09L132.12 174.24C132.21 174.67 132 175.11 131.61 175.32L119.55 181.77C119.33 181.89 119.16 182.08 119.08 182.32L113.46 198.21C113.25 198.81 112.54 199.06 111.99 198.73L100.95 191.88C100.67 191.71 100.32 191.68 100.02 191.82L72.7 204.09C71.79 204.5 70.91 203.47 71.45 202.64L86.58 179.24C86.76 178.96 86.79 178.61 86.66 178.3L86.62 178.33Z" fill="#B5A6FF"/>
<path d="M102.33 110.18C94.6499 106.09 86.9699 102 79.2999 97.9099C78.0299 97.4799 75.9199 96.9299 73.2799 97.0499C70.6599 97.1699 68.6299 97.8899 67.4099 98.4299C64.7899 99.6899 62.1699 100.95 59.5499 102.21C57.6199 103.14 55.9199 104.49 54.6499 106.21C54.3899 106.57 54.1199 106.95 53.8699 107.36C52.6899 109.26 52.0599 111.09 51.7099 112.56C51.4199 113.78 50.8399 114.92 50.0399 115.89C48.3699 117.92 46.5799 119.98 44.6699 122.07C40.0299 127.12 35.3999 131.48 30.9899 135.21C29.6299 136.37 28.4199 137.7 27.4899 139.23C26.4899 140.88 25.5699 143.08 25.3699 145.75C25.1699 148.41 25.7699 150.58 26.2699 151.92C26.8999 153.47 27.9499 155.59 29.7499 157.76C30.3699 158.51 31.0099 159.18 31.6399 159.78C34.0599 162.05 37.1699 163.4 40.4599 163.76C43.2999 164.07 46.9099 164.08 50.9499 163.15C58.2099 161.48 63.7599 157.66 65.8699 155.74C66.2999 156.42 67.1999 157.67 68.7899 158.66C69.6199 159.18 70.4299 159.5 71.1399 159.7C72.0599 159.96 73.0299 159.97 73.9599 159.77L78.7699 158.77" stroke="black" stroke-width="2" stroke-miterlimit="10" stroke-linecap="round"/>
<path d="M87.1799 163.9C87.5199 164.5 88.4899 166.03 90.4399 167.01C92.2899 167.94 93.9999 167.87 94.6899 167.8C93.8699 169.72 91.3199 176.3 94.4699 181.25C94.7499 181.69 95.0799 182.13 95.4799 182.56C96.3199 183.13 98.2199 184.26 100.9 184.47C103.79 184.7 105.98 183.73 106.88 183.27C108.74 182.29 111.46 180.58 114.06 177.73C116.95 174.57 118.47 171.37 119.26 169.31C120.36 165.61 121.39 161.47 122.21 156.93C122.87 153.34 123.31 149.94 123.61 146.79C123.67 146.12 123.8 145.45 123.98 144.8C124.17 144.11 124.34 143.34 124.46 142.49C124.69 140.9 124.69 139.5 124.61 138.38C124.58 136 124.23 131.95 122.22 127.46C120.49 123.59 118.2 120.9 116.61 119.31" stroke="black" stroke-width="2" stroke-miterlimit="10" stroke-linecap="round"/>
<path d="M70.4699 137.22C68.3899 135.35 64.6699 131.5 62.2799 125.44C60.1499 120.03 60.0199 115.26 60.1499 112.54" stroke="black" stroke-width="2" stroke-miterlimit="10" stroke-linecap="round"/>
<path d="M89.1091 153.381C92.0305 152.87 93.8018 149.042 93.0654 144.831C92.329 140.62 89.3637 137.621 86.4423 138.132C83.5209 138.643 81.7496 142.471 82.486 146.681C83.2224 150.892 86.1877 153.892 89.1091 153.381Z" stroke="black" stroke-width="2" stroke-miterlimit="10" stroke-linecap="round"/>
<path d="M82.9699 141.28C82.9699 141.28 78.9899 138.51 76.1299 141.66" stroke="black" stroke-width="2" stroke-miterlimit="10" stroke-linecap="round"/>
<path d="M85.2699 152.09C85.2699 152.09 83.4799 155.96 79.5499 154.78" stroke="black" stroke-width="2" stroke-miterlimit="10" stroke-linecap="round"/>
<path d="M109.634 162.844C112.555 162.333 114.326 158.505 113.59 154.295C112.854 150.084 109.888 147.084 106.967 147.595C104.046 148.106 102.274 151.934 103.011 156.145C103.747 160.356 106.712 163.355 109.634 162.844Z" stroke="black" stroke-width="2" stroke-miterlimit="10" stroke-linecap="round"/>
<path d="M103.5 150.74C103.5 150.74 99.5199 147.97 96.6599 151.12" stroke="black" stroke-width="2" stroke-miterlimit="10" stroke-linecap="round"/>
<path d="M105.79 161.56C105.79 161.56 104 165.43 100.07 164.25C100.07 164.25 96.0899 162.98 95.3099 157.09L92.1699 155.69" stroke="black" stroke-width="2" stroke-miterlimit="10" stroke-linecap="round"/>
<path d="M75.8199 111.49L75.9099 111.06C76.2399 109.5 77.8399 108.57 79.3599 109.05L79.4099 109.07C80.6099 109.45 81.3899 110.62 81.2699 111.88L81.0399 114.44C80.9399 115.56 81.5499 116.63 82.5699 117.11L85.4399 118.47C86.4899 118.97 87.0999 120.08 86.9599 121.23L86.9399 121.37C86.7199 123.13 84.8899 124.2 83.2499 123.53L82.8999 123.39C81.2599 122.71 79.4299 123.78 79.2099 125.54L79.1299 126.16C78.9099 127.89 77.1399 128.96 75.5099 128.34C74.2999 127.88 73.5899 126.63 73.8099 125.36L74.2399 122.93C74.4499 121.75 73.8499 120.58 72.7799 120.05L69.3399 118.35C68.1399 117.75 67.5599 116.36 67.9799 115.09L68.0599 114.86C68.5399 113.43 70.1099 112.67 71.5299 113.19L72.2799 113.46C73.8199 114.02 75.4899 113.09 75.8299 111.49H75.8199Z" stroke="black" stroke-width="2" stroke-miterlimit="10" stroke-linecap="round"/>
<path d="M103.67 135.54C102.51 135.42 101.9 133.34 101.73 132.44C101.66 132.09 101.24 129.65 102.33 129.04C103.41 128.43 105.84 129.67 106.25 131.61C106.66 133.56 104.91 135.68 103.67 135.55V135.54Z" stroke="black" stroke-width="2" stroke-miterlimit="10" stroke-linecap="round"/>
<path d="M110.85 130.48C109.69 130.36 109.08 128.28 108.91 127.38C108.84 127.03 108.42 124.59 109.51 123.98C110.59 123.37 113.02 124.61 113.43 126.55C113.84 128.5 112.09 130.62 110.85 130.49V130.48Z" stroke="black" stroke-width="2" stroke-miterlimit="10" stroke-linecap="round"/>
<path d="M116.24 140.15C115.08 140.03 114.47 137.95 114.3 137.05C114.23 136.7 113.81 134.26 114.9 133.65C115.98 133.04 118.41 134.28 118.82 136.22C119.23 138.17 117.48 140.29 116.24 140.16V140.15Z" stroke="black" stroke-width="2" stroke-miterlimit="10" stroke-linecap="round"/>
<path d="M108.68 145.76C107.52 145.64 106.91 143.56 106.74 142.66C106.67 142.31 106.25 139.87 107.34 139.26C108.42 138.65 110.85 139.89 111.26 141.83C111.67 143.78 109.92 145.9 108.68 145.77V145.76Z" stroke="black" stroke-width="2" stroke-miterlimit="10" stroke-linecap="round"/>
<path d="M95.67 105.69C96.41 102.37 97.54 96.1599 96.63 90.8799C96.53 90.2899 96.31 89.1999 95.52 88.1099C93.98 85.9999 90.48 84.2299 87.14 85.6399C84.27 86.8499 82.64 89.8899 82.97 92.2999C83.05 92.8799 83.19 93.4799 83.4 94.0999C84.29 96.6799 86.57 98.6199 88.53 99.8799C90.02 100.84 92.04 100.1 92.52 98.3999C92.52 98.3899 92.52 98.3799 92.52 98.3599C92.89 97.0199 93.09 95.7999 93.19 94.7699C93.28 93.8399 93.1 91.6299 91.47 90.4299C91.31 90.3099 91.15 90.2199 90.99 90.1299C89.52 89.3699 87.65 90.1299 87.29 91.7399C87.29 91.7499 87.29 91.7699 87.29 91.7799C86.98 93.2299 87.84 94.8599 89.46 95.6699" stroke="black" stroke-width="2" stroke-miterlimit="10" stroke-linecap="round"/>
<path d="M96.7 99.6797L108.67 106.36C109.51 107.33 109.55 108.66 108.89 109.45C108.26 110.2 107.24 110.18 107.1 110.18C104.73 108.89 102.35 107.6 99.98 106.31" stroke="black" stroke-width="2" stroke-miterlimit="10" stroke-linecap="round"/>
<path d="M33.69 342C31.6 342 29.48 341.94 27.38 341.81C24.74 341.66 17.97 340.68 12.69 334.8C8.36999 330 7.06999 324.02 7.29999 319.24C6.84999 317.6 6.68999 315.88 6.84999 314.16C6.91999 313.35 7.06999 312.56 7.26999 311.78C6.67999 309.54 6.35999 306.85 6.72999 303.82C7.35999 298.72 9.97999 293.83 13.9 290.39L30.06 275.57L34.61 266.34L51.22 230.21C51.84 228.86 52.29 227.77 52.63 226.78C53.95 223.01 56.17 219.7 59.08 217.21C59.41 216.93 59.74 216.66 60.08 216.4L63.4 209.32C65.95 203.89 71.22 200.14 77.17 199.54C78.16 199.44 79.15 199.39 80.12 199.39C80.78 199.39 81.46 199.41 82.16 199.46C89.11 199.96 93.9 202.81 98.54 205.56C100.75 206.87 102.9 208.34 104.96 209.93C105.66 208.88 106.05 207.77 106.48 206.51C106.81 205.57 107.06 204.59 107.22 203.61C108.16 198.07 111.08 193.29 115.45 190.14C118.3 188.09 121.6 186.82 125.01 186.45C125.69 186.38 126.38 186.34 127.07 186.34C128.19 186.34 129.31 186.44 130.42 186.63C135.12 187.45 139.38 190.03 142.41 193.9C143.56 195.37 144.73 196.91 145.89 198.49C145.97 198.59 146.04 198.7 146.11 198.8L155.21 212.41C155.28 212.52 155.35 212.62 155.42 212.73C156.57 214.64 157.7 216.58 158.78 218.49C158.94 218.77 159.17 219.02 159.48 219.24C159.5 219.25 159.51 219.26 159.53 219.27C164.7 222.9 167.15 227.35 169.3 231.28C171.42 235.15 173.46 239.01 175.37 242.75C175.42 242.84 175.46 242.93 175.5 243.03C177.57 247.49 178.21 252.56 177.3 257.33C175.7 265.72 170.03 270.5 167.67 272.16C167.63 272.19 155.54 280.39 155.54 280.39C153.57 281.73 151.4 282.97 149.09 284.1C145.73 285.73 142.48 287.65 139.41 289.78C136.17 292.04 133.1 294.59 130.27 297.36C127.35 300.22 124.21 302.8 120.93 305.01L97.04 321.16C83.01 331.27 67.53 337.79 51.01 340.52C45.3 341.47 39.46 341.95 33.66 341.95L33.69 342Z" fill="#8271FF"/>
<path d="M139.03 203.6C137.91 202.08 136.8 200.62 135.7 199.21C134.03 197.07 131.65 195.56 128.98 195.1C128.05 194.94 127.03 194.88 125.93 195C123.95 195.21 122.07 195.96 120.46 197.12C117.86 198.99 116.2 201.91 115.66 205.07C115.45 206.32 115.11 207.77 114.56 209.35C113.86 211.36 112.93 214.04 110.55 216.65C109.9 217.36 108.87 218.37 107.39 219.34C105.84 220.37 103.79 220.16 102.4 218.94C99.27 216.18 96.37 214.25 94.17 212.94C89.79 210.33 86.38 208.36 81.56 208.02C80.3 207.93 79.12 207.96 78.03 208.07C75.03 208.37 72.42 210.24 71.14 212.97L66.8 222.23C66.11 222.61 65.37 223.09 64.64 223.72C62.44 225.61 61.3 227.9 60.71 229.61C60.21 231.04 59.62 232.43 58.99 233.8C53.44 245.88 47.88 257.96 42.33 270.04L37.02 280.81L19.59 296.78C18.8 297.46 15.78 300.23 15.2 304.89C14.77 308.33 15.9 310.99 16.44 312.07C16.13 312.49 15.48 313.49 15.35 314.95C15.21 316.52 15.75 317.69 15.99 318.15C15.86 318.85 14.94 324.54 19.03 329.1C22.44 332.89 26.95 333.24 27.87 333.29C34.06 333.65 41.45 333.51 49.63 332.15C69.31 328.89 83.78 320.26 92.16 314.21C100.16 308.8 108.16 303.39 116.16 297.98C119.07 296.01 121.79 293.77 124.3 291.31C127.09 288.58 130.47 285.66 134.53 282.83C138.36 280.16 142.04 278.08 145.36 276.47C147.23 275.56 149.04 274.54 150.75 273.37L162.75 265.23C163.68 264.58 167.82 261.51 168.91 255.78C169.74 251.41 168.34 247.94 167.76 246.69C166.31 243.85 164.33 240.03 161.81 235.45C159.73 231.66 158.05 228.72 154.62 226.32C154.62 226.32 154.6 226.31 154.6 226.3C153.26 225.36 152.14 224.15 151.33 222.72C150.32 220.92 149.26 219.08 148.12 217.21" stroke="black" stroke-width="2" stroke-miterlimit="10" stroke-linecap="round"/>
<path d="M106.23 266.43C110.14 261.49 114.17 257.5 117.88 254.3C120.69 251.88 123.71 249.73 126.89 247.82C133.06 244.12 139.22 240.41 145.39 236.71" stroke="black" stroke-width="2" stroke-miterlimit="10" stroke-linecap="round"/>
<path d="M28.66 315.14C40.32 316.95 49.56 313.3 62.03 307.39C73.57 301.92 82.54 295.29 89.13 289.41C91.5 287.3 93.63 284.95 95.52 282.41" stroke="black" stroke-width="2" stroke-miterlimit="10" stroke-linecap="round"/>
<path d="M46.78 283.39C49.43 283.5 53.78 283.35 58.67 281.5C62.04 280.23 64.74 278.51 66.83 276.83C69.13 274.98 71.09 272.74 72.74 270.28C74 268.4 75.25 266.48 76.51 264.51C79.31 260.13 81.91 255.82 84.33 251.62C86.6 248.08 89.38 244.18 92.77 240.15C96.19 236.08 99.59 232.64 102.72 229.77" stroke="black" stroke-width="2" stroke-miterlimit="10" stroke-linecap="round"/>
<path d="M49.72 256.38C51.7 255.72 54.86 253.85 59.88 254.72C64.03 255.44 67.05 257.16 68.71 258.28" stroke="black" stroke-width="2" stroke-miterlimit="10" stroke-linecap="round"/>
<path d="M133.58 226.46C133.58 226.46 281.58 272.54 272.96 163.07" stroke="black" stroke-width="4" stroke-miterlimit="10" stroke-linecap="round"/>
<path d="M288.61 173.1L273.35 167.99L259.07 175.43L271.08 139.26L288.61 173.1Z" fill="black"/>
<path d="M183.69 37.5698C183.69 37.5698 35.6901 -8.51019 44.3101 100.97" stroke="black" stroke-width="4" stroke-miterlimit="10" stroke-linecap="round"/>
<path d="M28.66 90.9296L43.92 96.0396L58.2 88.5996L46.19 124.77L28.66 90.9296Z" fill="black"/>
<path d="M155.69 107.86C154.51 107.86 153.32 107.74 152.16 107.52C149.04 106.91 145.01 105.79 141.59 102.56C139.4 100.49 138.16 98.0901 137.26 96.3301C136.99 95.8101 136.63 95.1101 136.43 94.8101C135.73 94.1701 134.82 93.4801 133.86 92.7601C132.62 91.8201 131.22 90.7701 129.84 89.4901C129.52 89.3301 128.87 89.0601 128.38 88.8601C126.48 88.0901 123.87 87.0201 121.57 84.8501C121.21 84.5101 120.27 83.9401 119.44 83.4501C117.9 82.5301 115.99 81.3801 114.19 79.6801C112.32 77.9101 111.08 75.9701 110.08 74.4201C109.63 73.7201 109.02 72.7701 108.73 72.5001C107.01 70.8701 105.75 69.1001 104.75 67.6801C104.14 66.8201 103.51 65.9301 103.08 65.5201C101.98 64.4801 100.89 63.4201 99.79 62.3601C98.75 61.3501 97.71 60.3501 96.65 59.3501C96.13 58.8601 95.22 58.2501 94.26 57.6101C92.79 56.6301 91.12 55.5201 89.48 53.9701C88.1 52.6601 86.91 51.3001 85.86 50.1001C84.99 49.1101 84.17 48.1701 83.4 47.4401C79.07 43.3401 79.65 38.0301 79.87 36.0301C79.9 35.8001 79.93 35.5701 79.94 35.3401C80.07 32.7001 81.11 30.9201 81.59 30.1401C82.84 27.5001 85.25 24.3201 89.79 23.2001L90.8 22.8101H92.17C92.82 22.5801 93.33 22.3801 93.85 22.1901C94.96 21.7801 96.07 21.3701 98.3 20.5901C98.68 20.4601 98.82 20.3701 98.82 20.3701C98.89 20.3201 99.13 20.1101 99.3 19.9601C100.49 18.9101 102.47 17.1401 106.3 15.8001C107.49 15.3801 107.84 15.1601 108.61 14.6801C110.11 13.7401 111.69 12.8101 114.56 11.8001C115.88 11.3401 117.27 11.1001 118.69 11.1001C121.6 11.1001 123.95 12.0801 125.5 12.7301C125.63 12.7801 125.78 12.8401 125.92 12.9001C126.08 12.8801 126.26 12.8601 126.41 12.8401C127.33 12.7201 128.47 12.5801 129.75 12.5801C133.88 12.5801 136.57 14.2101 138.11 15.5701C141.56 18.6301 142.59 21.8601 143.08 23.9901C145.2 24.2101 148.64 24.8601 152.08 27.9201C153.71 29.3701 154.53 30.0501 155.39 30.7601C156.33 31.5401 157.3 32.3401 159.15 33.9901C162.62 37.0701 163.7 40.1201 164.28 41.7601C164.32 41.8701 164.35 41.9701 164.39 42.0801C164.39 42.0801 164.39 42.0801 164.4 42.0901C164.66 42.3201 164.78 42.3901 164.78 42.3901C164.83 42.4101 165.13 42.5001 165.34 42.5701C167.39 43.2201 169.82 44.1401 172.73 46.7301C174.71 48.4901 175.7 49.5001 176.57 50.3901C177.32 51.1601 177.97 51.8301 179.47 53.1601L186.43 59.3401C188.75 61.4001 190.03 63.3701 190.83 64.9501H190.91L193.55 67.4601C197.8 71.5601 200.14 76.8901 200.14 82.4801C200.14 86.7601 198.73 90.5801 196.26 92.9701C193.18 95.9401 189.59 96.3801 187.44 96.4501C187.38 96.5201 187.32 96.5901 187.26 96.6601C185.83 98.2701 184.01 100.12 180.43 101.61C178.43 102.44 176.48 102.85 174.46 102.85C172.9 102.85 171.65 102.6 170.77 102.42C169.94 102.79 169.54 103.04 168.91 103.44C167.86 104.1 166.43 105.02 163.74 106.13C160.98 107.28 158.35 107.84 155.69 107.84V107.86Z" fill="#8271FF"/>
<path d="M91.89 29.9899L117.75 20.9399C122.32 19.3399 127.41 20.3399 131.03 23.5599L179.79 66.8499" stroke="black" stroke-width="2" stroke-miterlimit="10" stroke-linecap="round"/>
<path d="M127.01 69.5999L90.5499 35.9199" stroke="black" stroke-width="2" stroke-miterlimit="10" stroke-linecap="round"/>
<path d="M188.01 80.5399C187.47 81.2799 186.72 81.8899 185.78 82.2799L161.65 92.2799C157.41 94.0399 152.53 93.1699 149.15 90.0499L136.81 78.6499" stroke="black" stroke-width="2" stroke-miterlimit="10" stroke-linecap="round"/>
<path d="M91.77 30.0298C91.29 30.2198 89.19 31.1298 88.14 33.4698C87.79 34.2498 87.63 35.0198 87.6 35.7298C87.5 37.6398 88.31 39.4798 89.69 40.7998C109.09 59.1598 128.5 77.5198 147.9 95.8798C151.32 99.1098 156.22 100.05 160.46 98.2798L184.21 88.3898C184.49 88.2698 184.76 88.1398 185.03 87.9998C186 87.4998 187.32 86.8998 188.9 85.3798C190.31 84.0098 192.64 78.6698 187.53 73.7498" stroke="black" stroke-width="2" stroke-miterlimit="10" stroke-linecap="round"/>
<path d="M111.35 34.0297L119.93 30.9897C120.79 30.6897 122.05 30.9997 122.74 31.6997C123.43 32.3997 123.29 33.2097 122.43 33.5097L113.85 36.5497C112.99 36.8497 111.73 36.5397 111.04 35.8397C110.35 35.1397 110.49 34.3297 111.35 34.0297Z" stroke="black" stroke-width="2" stroke-miterlimit="10"/>
<path d="M125.38 24.0298L97.25 33.9398C96.56 34.1798 96.01 34.7498 95.85 35.4598C95.84 35.5098 95.83 35.5598 95.82 35.6098C95.67 36.6398 96.8 37.4098 96.88 37.4998" stroke="black" stroke-width="2" stroke-miterlimit="10" stroke-linecap="round"/>
<path d="M197.75 144.62C197.13 144.62 196.57 144.25 196.33 143.68L194.51 139.44L191.56 142.04C191.28 142.29 190.91 142.43 190.54 142.43C189.69 142.43 188.99 141.74 188.99 140.88V124.36C188.99 123.51 189.69 122.81 190.54 122.81C190.93 122.81 191.31 122.96 191.6 123.23L203.83 134.72C204.29 135.15 204.44 135.8 204.22 136.39C204 136.97 203.46 137.37 202.84 137.4L199.06 137.57L201 141.46C201.38 142.22 201.07 143.15 200.31 143.54L198.44 144.48C198.23 144.59 197.99 144.64 197.75 144.64V144.62Z" fill="black"/>
<path d="M190.55 123.81C190.68 123.81 190.81 123.86 190.92 123.96L203.15 135.44C203.5 135.77 203.28 136.36 202.8 136.39L197.51 136.62C197.51 136.62 197.49 136.63 197.5 136.64L200.12 141.88C200.26 142.15 200.15 142.48 199.88 142.61L198.01 143.54C197.93 143.58 197.85 143.6 197.77 143.6C197.56 143.6 197.36 143.48 197.27 143.27L194.92 137.78C194.92 137.78 194.92 137.77 194.9 137.77C194.9 137.77 194.9 137.77 194.89 137.77L190.93 141.27C190.82 141.37 190.7 141.41 190.57 141.41C190.29 141.41 190.02 141.19 190.02 140.86V124.34C190.02 124.01 190.29 123.79 190.57 123.79M190.57 121.79C189.16 121.79 188.02 122.93 188.02 124.34V140.86C188.02 142.27 189.16 143.41 190.57 143.41C191.19 143.41 191.79 143.18 192.25 142.77L194.16 141.08L195.43 144.05C195.83 144.99 196.75 145.59 197.77 145.59C198.16 145.59 198.56 145.5 198.91 145.32L200.78 144.38C202.04 143.75 202.55 142.22 201.92 140.96L200.67 138.45L202.91 138.35C203.94 138.31 204.83 137.65 205.19 136.69C205.55 135.73 205.29 134.65 204.55 133.95L192.32 122.47C191.85 122.02 191.23 121.78 190.58 121.78L190.57 121.79Z" fill="white"/>
<path d="M158.57 287.4C159.58 285.11 164.68 285.34 166.18 283.47C167.68 281.6 166.42 276.62 168.38 275.19C170.34 273.76 174.66 276.48 176.94 275.6C179.22 274.72 180.54 269.79 182.98 269.52C185.42 269.25 187.74 273.77 190.19 274.15C192.64 274.53 196.16 270.91 198.46 271.92C200.76 272.93 200.52 278.03 202.39 279.53C204.32 281.08 209.24 279.77 210.67 281.73C212.1 283.69 209.38 288.01 210.26 290.29C211.14 292.56 216.07 293.89 216.34 296.33C216.6 298.73 212.09 301.09 211.71 303.54C211.34 305.9 214.95 309.51 213.94 311.81C212.93 314.11 207.83 313.87 206.33 315.74C204.83 317.61 206.09 322.59 204.13 324.02C202.17 325.45 197.85 322.73 195.57 323.61C193.3 324.49 191.97 329.42 189.53 329.69C187.13 329.95 184.77 325.44 182.32 325.06C179.87 324.68 176.35 328.3 174.05 327.29C171.75 326.28 171.99 321.18 170.12 319.68C168.25 318.18 163.27 319.44 161.84 317.48C160.39 315.5 163.13 311.2 162.25 308.92C161.37 306.64 156.44 305.32 156.17 302.88C155.9 300.44 160.42 298.12 160.8 295.67C161.18 293.22 157.56 289.7 158.57 287.4Z" fill="#B5A6FF"/>
<path d="M176.62 298.2C174.87 297.43 173.75 296.32 173.23 294.88C172.72 293.43 172.84 291.84 173.61 290.09C174.38 288.34 175.31 286.97 176.46 285.82C177.61 284.67 178.88 283.91 180.28 283.55C181.67 283.19 183.11 283.34 184.61 284C186.38 284.78 187.51 285.89 188.01 287.35C188.51 288.8 188.37 290.4 187.6 292.15C186.83 293.9 185.89 295.3 184.74 296.44C183.59 297.58 182.33 298.32 180.94 298.67C179.55 299.02 178.11 298.86 176.62 298.21V298.2ZM177.83 295.45C178.59 295.78 179.35 295.76 180.13 295.37C180.9 294.98 181.63 294.37 182.32 293.52C183.01 292.67 183.6 291.71 184.1 290.64C184.62 289.58 184.79 288.74 184.61 288.13C184.43 287.52 184.02 287.07 183.37 286.78C182.61 286.45 181.85 286.47 181.08 286.84C180.31 287.21 179.58 287.83 178.89 288.67C178.2 289.52 177.6 290.49 177.09 291.58C176.6 292.63 176.44 293.46 176.61 294.08C176.77 294.7 177.18 295.15 177.82 295.44L177.83 295.45ZM174.21 308.62C173.77 308.87 173.36 308.97 172.98 308.94C172.6 308.91 172.27 308.77 172.01 308.53C171.75 308.29 171.56 308 171.46 307.67C171.36 307.34 171.38 307 171.52 306.65C171.66 306.3 171.95 305.99 172.4 305.72L198.28 290.56C198.69 290.3 199.1 290.2 199.49 290.25C199.88 290.3 200.21 290.43 200.49 290.65C200.76 290.87 200.96 291.14 201.07 291.48C201.18 291.82 201.17 292.16 201.03 292.51C200.89 292.86 200.6 293.17 200.15 293.44L174.22 308.62H174.21ZM187.94 315.16C186.17 314.38 185.04 313.26 184.54 311.81C184.04 310.36 184.17 308.77 184.93 307.05C185.69 305.33 186.63 303.93 187.78 302.77C188.93 301.62 190.2 300.86 191.6 300.5C192.99 300.14 194.42 300.28 195.89 300.93C197.66 301.71 198.79 302.82 199.29 304.28C199.79 305.73 199.65 307.33 198.88 309.08C198.11 310.83 197.17 312.24 196.04 313.38C194.9 314.52 193.64 315.27 192.26 315.62C190.87 315.97 189.43 315.81 187.94 315.16ZM189.13 312.36C189.91 312.7 190.68 312.69 191.45 312.31C192.22 311.94 192.95 311.32 193.64 310.46C194.33 309.6 194.93 308.64 195.43 307.57C195.93 306.5 196.09 305.66 195.92 305.05C195.75 304.44 195.34 303.99 194.7 303.71C193.94 303.38 193.17 303.4 192.39 303.78C191.61 304.16 190.87 304.77 190.18 305.62C189.49 306.47 188.9 307.43 188.4 308.5C187.91 309.55 187.75 310.38 187.92 311C188.08 311.62 188.49 312.07 189.13 312.36Z" fill="#8271FF"/>
</g>
<defs>
<clipPath id="clip0_692_5204">
<rect width="315" height="342" fill="white" transform="translate(0.5)"/>
</clipPath>
</defs>
</svg>
