<svg width="314" height="343" viewBox="0 0 314 343" fill="none" xmlns="http://www.w3.org/2000/svg">
<g clip-path="url(#clip0_555_1675)">
<path d="M289.79 38.97H211.02C204.33 38.97 198.9 44.4 198.9 51.09V207.55C198.9 214.24 204.33 219.67 211.02 219.67H245.39C247.11 221.31 249.01 223.69 250.2 226.98C252.26 232.66 250.96 237.56 250.47 239.13C251.61 238.76 259.89 235.91 262.95 227.48C264.02 224.53 264.14 221.78 263.96 219.67H289.79C296.48 219.67 301.91 214.24 301.91 207.55V51.09C301.91 44.4 296.48 38.97 289.79 38.97Z" fill="#FAFAFA"/>
<path d="M261.01 38.97H289.8C296.49 38.97 301.92 44.4 301.92 51.09" stroke="black" stroke-width="2" stroke-miterlimit="10" stroke-linecap="round"/>
<path d="M230.56 219.67H211.02C204.33 219.67 198.9 214.24 198.9 207.55" stroke="black" stroke-width="2" stroke-miterlimit="10" stroke-linecap="round"/>
<path d="M250.2 226.98C250.58 228.34 250.91 230.03 251.04 231.97C251.23 234.88 250.88 237.34 250.47 239.13C251.89 238.7 257.95 236.71 261.55 230.44C264.17 225.87 264.09 221.45 263.96 219.67H277.17H289.8C296.49 219.67 301.92 214.24 301.92 207.55V139.24" stroke="black" stroke-width="2" stroke-miterlimit="10" stroke-linecap="round"/>
<path d="M273.58 49.3501H201.72C198.373 49.3501 195.66 52.0633 195.66 55.4101C195.66 58.7569 198.373 61.4701 201.72 61.4701H273.58C276.927 61.4701 279.64 58.7569 279.64 55.4101C279.64 52.0633 276.927 49.3501 273.58 49.3501Z" fill="#EFEFEF"/>
<path d="M291.14 191.71H219.28C215.933 191.71 213.22 194.423 213.22 197.77C213.22 201.117 215.933 203.83 219.28 203.83H291.14C294.487 203.83 297.2 201.117 297.2 197.77C297.2 194.423 294.487 191.71 291.14 191.71Z" fill="#EFEFEF"/>
<path d="M292.56 67.3501H198.25C196.82 67.3501 195.66 68.5097 195.66 69.9401V86.5001C195.66 87.9305 196.82 89.0901 198.25 89.0901H292.56C293.99 89.0901 295.15 87.9305 295.15 86.5001V69.9401C295.15 68.5097 293.99 67.3501 292.56 67.3501Z" fill="#EFEFEF"/>
<path d="M292.56 98.73H198.25C196.82 98.73 195.66 99.8896 195.66 101.32V117.88C195.66 119.31 196.82 120.47 198.25 120.47H292.56C293.99 120.47 295.15 119.31 295.15 117.88V101.32C295.15 99.8896 293.99 98.73 292.56 98.73Z" fill="#EFEFEF"/>
<path d="M292.51 130.12H263.46C262.107 130.12 261.01 131.217 261.01 132.57V184.55C261.01 185.903 262.107 187 263.46 187H292.51C293.863 187 294.96 185.903 294.96 184.55V132.57C294.96 131.217 293.863 130.12 292.51 130.12Z" fill="#EFEFEF"/>
<path d="M253.38 130.12H224.33C222.977 130.12 221.88 131.217 221.88 132.57V184.55C221.88 185.903 222.977 187 224.33 187H253.38C254.733 187 255.83 185.903 255.83 184.55V132.57C255.83 131.217 254.733 130.12 253.38 130.12Z" fill="#EFEFEF"/>
<path d="M196.58 1H106.71C99.6187 1 93.87 6.74866 93.87 13.84V168.86C93.87 175.951 99.6187 181.7 106.71 181.7H196.58C203.671 181.7 209.42 175.951 209.42 168.86V13.84C209.42 6.74866 203.671 1 196.58 1Z" fill="#FAFAFA"/>
<path d="M93.87 30.05V13.84C93.87 6.75 99.62 1 106.71 1H196.58C203.67 1 209.42 6.75 209.42 13.84V168.87C209.42 175.96 203.67 181.71 196.58 181.71" stroke="black" stroke-width="2" stroke-miterlimit="10" stroke-linecap="round"/>
<path d="M194.56 88.9099H122.7C119.353 88.9099 116.64 91.6231 116.64 94.9699C116.64 98.3168 119.353 101.03 122.7 101.03H194.56C197.907 101.03 200.62 98.3168 200.62 94.9699C200.62 91.6231 197.907 88.9099 194.56 88.9099Z" fill="#EFEFEF"/>
<path d="M196.43 115.47H105.32C103.006 115.47 101.13 117.346 101.13 119.66V168.16C101.13 170.474 103.006 172.35 105.32 172.35H196.43C198.744 172.35 200.62 170.474 200.62 168.16V119.66C200.62 117.346 198.744 115.47 196.43 115.47Z" fill="#EFEFEF"/>
<path d="M197.35 12.9099H104.4C102.594 12.9099 101.13 14.3739 101.13 16.1799V44.1399C101.13 45.9459 102.594 47.4099 104.4 47.4099H197.35C199.156 47.4099 200.62 45.9459 200.62 44.1399V16.1799C200.62 14.3739 199.156 12.9099 197.35 12.9099Z" fill="#EFEFEF"/>
<path d="M198.3 50.9099H153.18C151.904 50.9099 150.87 51.9441 150.87 53.2199V83.0999C150.87 84.3757 151.904 85.4099 153.18 85.4099H198.3C199.576 85.4099 200.61 84.3757 200.61 83.0999V53.2199C200.61 51.9441 199.576 50.9099 198.3 50.9099Z" fill="#EFEFEF"/>
<path d="M143.61 50.9099H103.32C102.111 50.9099 101.13 51.8904 101.13 53.0999V83.2199C101.13 84.4294 102.111 85.4099 103.32 85.4099H143.61C144.82 85.4099 145.8 84.4294 145.8 83.2199V53.0999C145.8 51.8904 144.82 50.9099 143.61 50.9099Z" fill="#EFEFEF"/>
<path d="M76.47 320.86C75.29 320.86 74.1001 320.74 72.94 320.52C69.82 319.91 65.79 318.79 62.37 315.56C60.18 313.49 58.9401 311.09 58.0401 309.33C57.7701 308.81 57.41 308.11 57.21 307.81C56.51 307.17 55.6 306.48 54.64 305.76C53.4 304.82 52 303.77 50.62 302.49C50.3 302.33 49.6501 302.06 49.16 301.86C47.26 301.09 44.65 300.02 42.35 297.85C41.99 297.51 41.0501 296.94 40.2201 296.45C38.68 295.53 36.7701 294.38 34.9701 292.68C33.1001 290.91 31.86 288.97 30.86 287.42C30.41 286.72 29.8 285.77 29.51 285.5C27.79 283.87 26.53 282.1 25.53 280.68C24.92 279.82 24.29 278.93 23.86 278.52C22.76 277.48 21.67 276.42 20.57 275.36C19.53 274.35 18.49 273.35 17.43 272.35C16.91 271.86 16 271.25 15.04 270.61C13.57 269.63 11.9 268.52 10.26 266.97C8.88005 265.66 7.69005 264.3 6.64005 263.1C5.77005 262.11 4.95005 261.17 4.18005 260.44C-0.149952 256.34 0.430048 251.03 0.650048 249.03C0.680048 248.8 0.710048 248.57 0.720048 248.34C0.850048 245.7 1.89005 243.92 2.37005 243.14C3.62005 240.5 6.03005 237.32 10.57 236.2L11.58 235.81H12.95C13.6 235.58 14.11 235.38 14.63 235.19C15.74 234.78 16.85 234.37 19.08 233.59C19.46 233.46 19.6 233.37 19.6 233.37C19.67 233.32 19.91 233.11 20.08 232.96C21.27 231.91 23.25 230.14 27.08 228.8C28.27 228.38 28.62 228.16 29.39 227.68C30.89 226.74 32.4701 225.81 35.34 224.8C36.66 224.34 38.0501 224.1 39.4701 224.1C42.3801 224.1 44.73 225.08 46.28 225.73C46.41 225.78 46.5601 225.84 46.7001 225.9C46.8601 225.88 47.04 225.86 47.19 225.84C48.11 225.72 49.25 225.58 50.53 225.58C54.66 225.58 57.35 227.21 58.89 228.57C62.34 231.63 63.37 234.86 63.8601 236.99C65.98 237.21 69.42 237.86 72.86 240.92C74.49 242.37 75.31 243.05 76.17 243.76C77.11 244.54 78.08 245.34 79.93 246.99C83.4 250.07 84.48 253.12 85.06 254.76C85.1 254.87 85.13 254.97 85.17 255.08C85.17 255.08 85.17 255.08 85.18 255.09C85.44 255.32 85.56 255.39 85.56 255.39C85.61 255.41 85.91 255.5 86.12 255.57C88.1701 256.22 90.6 257.14 93.51 259.73C95.4901 261.49 96.48 262.5 97.35 263.39C98.1 264.16 98.75 264.83 100.25 266.16L107.21 272.34C109.53 274.4 110.81 276.37 111.61 277.95H111.69L114.33 280.46C118.58 284.56 120.92 289.89 120.92 295.48C120.92 299.76 119.51 303.58 117.04 305.97C113.96 308.94 110.37 309.38 108.22 309.45C108.16 309.52 108.1 309.59 108.04 309.66C106.61 311.27 104.79 313.12 101.21 314.61C99.21 315.44 97.26 315.85 95.24 315.85C93.68 315.85 92.43 315.6 91.55 315.42C90.72 315.79 90.32 316.04 89.69 316.44C88.64 317.1 87.21 318.02 84.52 319.13C81.76 320.28 79.1301 320.84 76.47 320.84V320.86Z" fill="#8271FF"/>
<path d="M12.67 242.99L38.53 233.94C43.1 232.34 48.19 233.34 51.81 236.56L100.57 279.85" stroke="black" stroke-width="2" stroke-miterlimit="10" stroke-linecap="round"/>
<path d="M47.79 282.6L11.33 248.92" stroke="black" stroke-width="2" stroke-miterlimit="10" stroke-linecap="round"/>
<path d="M108.79 293.54C108.25 294.28 107.5 294.89 106.56 295.28L82.43 305.28C78.19 307.04 73.31 306.17 69.93 303.05L57.59 291.65" stroke="black" stroke-width="2" stroke-miterlimit="10" stroke-linecap="round"/>
<path d="M12.55 243.03C12.07 243.22 9.97 244.13 8.92 246.47C8.57 247.25 8.41 248.02 8.38 248.73C8.28 250.64 9.09 252.48 10.47 253.8C29.87 272.16 49.28 290.52 68.68 308.88C72.1 312.11 77 313.05 81.24 311.28L104.99 301.39C105.27 301.27 105.54 301.14 105.81 301C106.78 300.5 108.1 299.9 109.68 298.38C111.09 297.01 113.42 291.67 108.31 286.75" stroke="black" stroke-width="2" stroke-miterlimit="10" stroke-linecap="round"/>
<path d="M32.13 247.02L40.71 243.98C41.57 243.68 42.83 243.99 43.52 244.69C44.21 245.39 44.07 246.2 43.21 246.5L34.63 249.54C33.77 249.84 32.51 249.53 31.82 248.83C31.13 248.13 31.27 247.32 32.13 247.02Z" stroke="black" stroke-width="2" stroke-miterlimit="10"/>
<path d="M46.16 237.02L18.03 246.93C17.34 247.17 16.79 247.74 16.63 248.45C16.62 248.5 16.61 248.55 16.6 248.6C16.45 249.63 17.58 250.4 17.66 250.49" stroke="black" stroke-width="2" stroke-miterlimit="10" stroke-linecap="round"/>
<path d="M111.08 26.29H21.21C14.12 26.29 8.37 32.04 8.37 39.13V194.16C8.37 201.25 14.12 207 21.21 207H29.68C29.45 209.16 29.49 212.09 30.64 215.26C33.7 223.69 41.98 226.54 43.12 226.91C42.63 225.34 41.33 220.44 43.39 214.76C44.7 211.15 46.85 208.64 48.69 207H111.08C118.17 207 123.92 201.25 123.92 194.16V39.12C123.92 32.03 118.17 26.28 111.08 26.28V26.29Z" fill="#FAFAFA"/>
<path d="M59.92 206.99H48.69C47.44 207.8 44.33 210.05 42.64 214.26C40.17 220.41 42.66 225.93 43.12 226.9C41.33 226.15 36.76 223.96 33.36 218.85C30.03 213.86 29.71 208.94 29.68 206.99H21.21C20.32 206.99 15.87 206.89 12.23 203.33C8.45999 199.64 8.37 195 8.37 194.15V97.48" stroke="black" stroke-width="2" stroke-miterlimit="10" stroke-linecap="round"/>
<path d="M35.67 26.29H111.08C118.17 26.29 123.92 32.04 123.92 39.13V194.15" stroke="black" stroke-width="2" stroke-miterlimit="10" stroke-linecap="round"/>
<path d="M94.51 38.97H22.65C19.3031 38.97 16.59 41.6831 16.59 45.03C16.59 48.3768 19.3031 51.09 22.65 51.09H94.51C97.8568 51.09 100.57 48.3768 100.57 45.03C100.57 41.6831 97.8568 38.97 94.51 38.97Z" fill="#EFEFEF"/>
<path d="M112.06 181.32H40.2C36.8532 181.32 34.14 184.033 34.14 187.38C34.14 190.727 36.8532 193.44 40.2 193.44H112.06C115.407 193.44 118.12 190.727 118.12 187.38C118.12 184.033 115.407 181.32 112.06 181.32Z" fill="#EFEFEF"/>
<path d="M111.89 56.97H20.78C18.4659 56.97 16.59 58.8459 16.59 61.16V109.66C16.59 111.974 18.4659 113.85 20.78 113.85H111.89C114.204 113.85 116.08 111.974 116.08 109.66V61.16C116.08 58.8459 114.204 56.97 111.89 56.97Z" fill="#EFEFEF"/>
<path d="M111.7 119.73H20.59C18.276 119.73 16.4 121.606 16.4 123.92V172.42C16.4 174.734 18.276 176.61 20.59 176.61H111.7C114.014 176.61 115.89 174.734 115.89 172.42V123.92C115.89 121.606 114.014 119.73 111.7 119.73Z" fill="#EFEFEF"/>
<path d="M212.7 342.05C211.24 342.05 209.75 342.01 208.29 341.92C206.44 341.82 201.71 341.13 198.01 337.01C194.99 333.65 194.08 329.46 194.24 326.12C193.92 324.97 193.81 323.77 193.92 322.57C193.97 322.01 194.07 321.45 194.22 320.91C193.81 319.34 193.58 317.46 193.85 315.34C194.29 311.77 196.12 308.35 198.87 305.94L210.18 295.57L213.36 289.11L224.99 263.82C225.42 262.88 225.74 262.11 225.98 261.42C226.9 258.78 228.46 256.46 230.49 254.72C230.72 254.53 230.95 254.34 231.19 254.16L233.51 249.21C235.29 245.41 238.99 242.79 243.15 242.37C243.84 242.3 244.53 242.27 245.21 242.27C245.67 242.27 246.15 242.29 246.64 242.32C251.5 242.67 254.86 244.66 258.1 246.59C259.65 247.51 261.15 248.53 262.59 249.65C263.08 248.92 263.35 248.14 263.66 247.26C263.89 246.6 264.06 245.92 264.18 245.23C264.83 241.36 266.88 238.01 269.94 235.8C271.93 234.37 274.25 233.47 276.63 233.22C277.11 233.17 277.59 233.14 278.07 233.14C278.85 233.14 279.64 233.21 280.42 233.34C283.71 233.91 286.69 235.72 288.81 238.43C289.62 239.46 290.43 240.53 291.25 241.65C291.3 241.72 291.35 241.79 291.4 241.87L297.77 251.39C297.82 251.46 297.87 251.54 297.91 251.62C298.72 252.95 299.51 254.31 300.26 255.65C300.37 255.85 300.53 256.02 300.75 256.17C300.76 256.17 300.77 256.18 300.78 256.19C304.4 258.73 306.11 261.85 307.62 264.6C309.11 267.31 310.53 270.01 311.87 272.63C311.9 272.69 311.93 272.76 311.96 272.82C313.41 275.94 313.86 279.49 313.22 282.83C312.1 288.7 308.13 292.04 306.48 293.21C306.45 293.23 297.99 298.97 297.99 298.97C296.61 299.91 295.09 300.78 293.48 301.57C291.13 302.71 288.85 304.05 286.71 305.55C284.44 307.13 282.29 308.92 280.32 310.85C278.27 312.85 276.08 314.66 273.79 316.2L257.07 327.5C247.25 334.58 236.42 339.14 224.86 341.05C220.87 341.71 216.78 342.05 212.72 342.05H212.7Z" fill="#8271FF"/>
<path d="M286.42 245.19C285.64 244.13 284.86 243.1 284.09 242.12C282.92 240.62 281.26 239.57 279.39 239.24C278.74 239.13 278.02 239.09 277.26 239.17C275.87 239.32 274.56 239.84 273.43 240.66C271.61 241.97 270.45 244.01 270.07 246.22C269.92 247.09 269.69 248.11 269.3 249.22C268.81 250.63 268.16 252.51 266.5 254.33C266.04 254.83 265.32 255.53 264.29 256.21C263.21 256.93 261.77 256.79 260.8 255.93C258.61 254 256.58 252.65 255.04 251.73C251.97 249.91 249.59 248.53 246.21 248.29C245.33 248.23 244.5 248.25 243.74 248.33C241.64 248.54 239.81 249.85 238.92 251.76L235.88 258.24C235.4 258.5 234.88 258.84 234.37 259.28C232.83 260.6 232.03 262.21 231.62 263.4C231.27 264.4 230.86 265.37 230.42 266.33C226.53 274.78 222.65 283.24 218.76 291.69L215.04 299.23L202.84 310.41C202.29 310.88 200.17 312.82 199.77 316.08C199.47 318.48 200.26 320.35 200.64 321.1C200.43 321.39 199.97 322.1 199.88 323.11C199.78 324.21 200.16 325.03 200.33 325.35C200.24 325.84 199.59 329.82 202.46 333.01C204.85 335.66 208 335.91 208.65 335.94C212.98 336.19 218.15 336.09 223.88 335.14C237.65 332.86 247.78 326.82 253.64 322.59C259.24 318.8 264.84 315.02 270.44 311.23C272.48 309.85 274.38 308.28 276.14 306.56C278.09 304.65 280.46 302.6 283.3 300.62C285.98 298.75 288.56 297.3 290.88 296.17C292.19 295.53 293.45 294.82 294.66 294L303.06 288.31C303.71 287.85 306.6 285.7 307.37 281.7C307.95 278.64 306.97 276.21 306.56 275.34C305.55 273.35 304.16 270.68 302.4 267.48C300.95 264.83 299.77 262.77 297.37 261.09C297.37 261.09 297.36 261.09 297.35 261.08C296.41 260.42 295.63 259.58 295.07 258.57C294.37 257.31 293.62 256.03 292.82 254.71" stroke="black" stroke-width="2" stroke-miterlimit="10" stroke-linecap="round"/>
<path d="M263.47 289.16C266.21 285.71 269.03 282.91 271.62 280.67C273.59 278.98 275.7 277.47 277.93 276.13C282.24 273.54 286.56 270.95 290.87 268.35" stroke="black" stroke-width="2" stroke-miterlimit="10" stroke-linecap="round"/>
<path d="M209.19 323.25C217.35 324.51 223.82 321.96 232.54 317.83C240.62 314 246.89 309.36 251.5 305.25C253.16 303.77 254.65 302.13 255.97 300.35" stroke="black" stroke-width="2" stroke-miterlimit="10" stroke-linecap="round"/>
<path d="M221.87 301.03C223.73 301.11 226.77 301 230.19 299.71C232.55 298.82 234.44 297.62 235.9 296.44C237.51 295.14 238.88 293.57 240.03 291.85C240.91 290.54 241.79 289.19 242.67 287.81C244.63 284.74 246.45 281.73 248.15 278.79C249.74 276.31 251.68 273.59 254.05 270.76C256.45 267.91 258.82 265.5 261.01 263.5" stroke="black" stroke-width="2" stroke-miterlimit="10" stroke-linecap="round"/>
<path d="M223.92 282.13C225.31 281.67 227.52 280.36 231.03 280.97C233.93 281.47 236.05 282.68 237.21 283.46" stroke="black" stroke-width="2" stroke-miterlimit="10" stroke-linecap="round"/>
<path d="M160.86 249.23L160.14 247.57C159.93 247.1 159.4 246.86 158.92 247.02L156.37 247.86C155.92 248.01 155.42 247.82 155.19 247.4L153.57 244.51C153.22 243.88 152.34 243.82 151.9 244.4L147.85 249.78C147.39 250.39 146.45 250.28 146.14 249.59L143.66 244.05C143.38 243.43 142.57 243.26 142.07 243.72L138.39 247.11C137.86 247.6 136.99 247.38 136.77 246.68L135.32 242.22C135.09 241.51 134.19 241.3 133.66 241.82L128.2 247.3C127.9 247.6 127.44 247.68 127.06 247.49L113.67 240.99C113.5 240.91 113.32 240.88 113.13 240.9L91.6299 243.12C90.8799 243.2 90.3199 242.45 90.5999 241.76L94.0199 233.23C94.2299 232.7 93.9499 232.09 93.4099 231.91L84.8299 229.05C84.1999 228.84 83.9499 228.08 84.3199 227.54L92.1299 216.22C92.3199 215.94 92.3599 215.59 92.2299 215.27L86.4699 201.28C86.1999 200.63 86.6699 199.92 87.3699 199.9L101.2 199.55C101.56 199.55 101.88 199.34 102.05 199.03L110.57 183.49C110.71 183.24 110.94 183.06 111.22 183C111.88 182.85 112.2 182.1 111.85 181.52L110.5 179.25C110.18 178.72 110.42 178.03 111 177.81L113.73 176.76C114.39 176.51 114.58 175.67 114.1 175.15L106.6 167.02C105.99 166.36 106.49 165.3 107.39 165.35L129.46 166.51C129.83 166.53 130.19 166.34 130.38 166.01L136.65 155.16C136.93 154.68 137.54 154.52 138.02 154.8L146.56 159.84C146.87 160.03 147.26 160.02 147.58 159.84L150.76 157.94C151.06 157.76 151.24 157.44 151.25 157.09L151.39 134.93C151.39 134.05 152.46 133.61 153.09 134.22L171.07 151.8C171.24 151.96 171.46 152.06 171.69 152.08L187.91 153.35C188.66 153.41 189.08 154.25 188.67 154.89L182.18 164.88C181.95 165.23 181.97 165.69 182.22 166.03L184 168.38C184.23 168.69 184.62 168.83 185 168.75L185.98 168.54C186.37 168.46 186.77 168.61 187 168.94L192.29 176.36C192.56 176.75 192.53 177.27 192.21 177.62L192.12 177.71C191.79 178.07 191.77 178.61 192.06 178.99L196.39 184.69L194.67 185.05L194.91 185.36L209.1 191.7C209.55 191.9 209.78 192.4 209.66 192.87L206.32 205.25C206.21 205.64 206.35 206.05 206.67 206.3L221.53 217.74C222.22 218.27 221.95 219.36 221.09 219.51L209.81 221.48C209.57 221.52 209.35 221.65 209.2 221.85L203.47 229.18C203.29 229.41 203.22 229.71 203.28 229.99L206.36 245.14C206.45 245.57 206.24 246.01 205.85 246.22L193.79 252.67C193.57 252.79 193.4 252.98 193.32 253.22L187.7 269.11C187.49 269.71 186.78 269.96 186.23 269.63L175.19 262.78C174.91 262.61 174.56 262.58 174.26 262.72L146.94 274.99C146.03 275.4 145.15 274.37 145.69 273.54L160.82 250.14C161 249.86 161.03 249.51 160.9 249.2L160.86 249.23Z" fill="#B5A6FF"/>
<path d="M176.57 181.08C168.89 176.99 161.21 172.9 153.54 168.81C152.27 168.38 150.16 167.83 147.52 167.95C144.9 168.07 142.87 168.79 141.65 169.33C139.03 170.59 136.41 171.85 133.79 173.11C131.86 174.04 130.16 175.39 128.89 177.11C128.63 177.47 128.36 177.85 128.11 178.26C126.93 180.16 126.3 181.99 125.95 183.46C125.66 184.68 125.08 185.82 124.28 186.79C122.61 188.82 120.82 190.88 118.91 192.97C114.27 198.02 109.64 202.38 105.23 206.11C103.87 207.27 102.66 208.6 101.73 210.13C100.73 211.78 99.8099 213.98 99.6099 216.65C99.4099 219.31 100.01 221.48 100.51 222.82C101.14 224.37 102.19 226.49 103.99 228.66C104.61 229.41 105.25 230.08 105.88 230.68C108.3 232.95 111.41 234.3 114.7 234.66C117.54 234.97 121.15 234.98 125.19 234.05C132.45 232.38 138 228.56 140.11 226.64C140.54 227.32 141.44 228.57 143.03 229.56C143.86 230.08 144.67 230.4 145.38 230.6C146.3 230.86 147.27 230.87 148.2 230.67L153.01 229.67" stroke="black" stroke-width="2" stroke-miterlimit="10" stroke-linecap="round"/>
<path d="M161.42 234.8C161.76 235.4 162.73 236.93 164.68 237.91C166.53 238.84 168.24 238.77 168.93 238.7C168.11 240.62 165.56 247.2 168.71 252.15C168.99 252.59 169.32 253.03 169.72 253.46C170.56 254.03 172.46 255.16 175.14 255.37C178.03 255.6 180.22 254.63 181.12 254.17C182.98 253.19 185.7 251.48 188.3 248.63C191.19 245.47 192.71 242.27 193.5 240.21C194.6 236.51 195.63 232.37 196.45 227.83C197.11 224.24 197.55 220.84 197.85 217.69C197.91 217.02 198.04 216.35 198.22 215.7C198.41 215.01 198.58 214.24 198.7 213.39C198.93 211.8 198.93 210.4 198.85 209.28C198.82 206.9 198.47 202.85 196.46 198.36C194.73 194.49 192.44 191.8 190.85 190.21" stroke="black" stroke-width="2" stroke-miterlimit="10" stroke-linecap="round"/>
<path d="M144.71 208.12C142.63 206.25 138.91 202.4 136.52 196.34C134.39 190.93 134.26 186.16 134.39 183.44" stroke="black" stroke-width="2" stroke-miterlimit="10" stroke-linecap="round"/>
<path d="M163.353 224.271C166.275 223.76 168.046 219.933 167.31 215.722C166.573 211.511 163.608 208.512 160.686 209.023C157.765 209.534 155.994 213.361 156.73 217.572C157.467 221.783 160.432 224.782 163.353 224.271Z" stroke="black" stroke-width="2" stroke-miterlimit="10" stroke-linecap="round"/>
<path d="M157.21 212.18C157.21 212.18 153.23 209.41 150.37 212.56" stroke="black" stroke-width="2" stroke-miterlimit="10" stroke-linecap="round"/>
<path d="M159.51 222.99C159.51 222.99 157.72 226.86 153.79 225.68" stroke="black" stroke-width="2" stroke-miterlimit="10" stroke-linecap="round"/>
<path d="M183.878 233.745C186.799 233.234 188.571 229.406 187.834 225.195C187.098 220.984 184.133 217.985 181.211 218.496C178.29 219.007 176.518 222.835 177.255 227.045C177.991 231.256 180.956 234.256 183.878 233.745Z" stroke="black" stroke-width="2" stroke-miterlimit="10" stroke-linecap="round"/>
<path d="M177.74 221.64C177.74 221.64 173.76 218.87 170.9 222.02" stroke="black" stroke-width="2" stroke-miterlimit="10" stroke-linecap="round"/>
<path d="M180.03 232.46C180.03 232.46 178.24 236.33 174.31 235.15C174.31 235.15 170.33 233.88 169.55 227.99L166.41 226.59" stroke="black" stroke-width="2" stroke-miterlimit="10" stroke-linecap="round"/>
<path d="M150.06 182.39L150.15 181.96C150.48 180.4 152.08 179.47 153.6 179.95L153.65 179.97C154.85 180.35 155.63 181.52 155.51 182.78L155.28 185.34C155.18 186.46 155.79 187.53 156.81 188.01L159.68 189.37C160.73 189.87 161.34 190.98 161.2 192.13L161.18 192.27C160.96 194.03 159.13 195.1 157.49 194.43L157.14 194.29C155.5 193.61 153.67 194.68 153.45 196.44L153.37 197.06C153.15 198.79 151.38 199.86 149.75 199.24C148.54 198.78 147.83 197.53 148.05 196.26L148.48 193.83C148.69 192.65 148.09 191.48 147.02 190.95L143.58 189.25C142.38 188.65 141.8 187.26 142.22 185.99L142.3 185.76C142.78 184.33 144.35 183.57 145.77 184.09L146.52 184.36C148.06 184.92 149.73 183.99 150.07 182.39H150.06Z" stroke="black" stroke-width="2" stroke-miterlimit="10" stroke-linecap="round"/>
<path d="M177.91 206.44C176.75 206.32 176.14 204.24 175.97 203.34C175.9 202.99 175.48 200.55 176.57 199.94C177.65 199.33 180.08 200.57 180.49 202.51C180.9 204.46 179.15 206.58 177.91 206.45V206.44Z" stroke="black" stroke-width="2" stroke-miterlimit="10" stroke-linecap="round"/>
<path d="M185.09 201.38C183.93 201.26 183.32 199.18 183.15 198.28C183.08 197.93 182.66 195.49 183.75 194.88C184.83 194.27 187.26 195.51 187.67 197.45C188.08 199.4 186.33 201.52 185.09 201.39V201.38Z" stroke="black" stroke-width="2" stroke-miterlimit="10" stroke-linecap="round"/>
<path d="M190.48 211.05C189.32 210.93 188.71 208.85 188.54 207.95C188.47 207.6 188.05 205.16 189.14 204.55C190.22 203.94 192.65 205.18 193.06 207.12C193.47 209.07 191.72 211.19 190.48 211.06V211.05Z" stroke="black" stroke-width="2" stroke-miterlimit="10" stroke-linecap="round"/>
<path d="M182.92 216.66C181.76 216.54 181.15 214.46 180.98 213.56C180.91 213.21 180.49 210.77 181.58 210.16C182.66 209.55 185.09 210.79 185.5 212.73C185.91 214.68 184.16 216.8 182.92 216.67V216.66Z" stroke="black" stroke-width="2" stroke-miterlimit="10" stroke-linecap="round"/>
<path d="M169.91 176.59C170.65 173.27 171.78 167.06 170.87 161.78C170.77 161.19 170.55 160.1 169.76 159.01C168.22 156.9 164.72 155.13 161.38 156.54C158.51 157.75 156.88 160.79 157.21 163.2C157.29 163.78 157.43 164.38 157.64 165C158.53 167.58 160.81 169.52 162.77 170.78C164.26 171.74 166.28 171 166.76 169.3C166.76 169.29 166.76 169.28 166.76 169.26C167.13 167.92 167.33 166.7 167.43 165.67C167.52 164.74 167.34 162.53 165.71 161.33C165.55 161.21 165.39 161.12 165.23 161.03C163.76 160.27 161.89 161.03 161.53 162.64C161.53 162.65 161.53 162.67 161.53 162.68C161.22 164.13 162.08 165.76 163.7 166.57" stroke="black" stroke-width="2" stroke-miterlimit="10" stroke-linecap="round"/>
<path d="M170.94 170.58L182.91 177.26C183.75 178.23 183.79 179.56 183.13 180.35C182.5 181.1 181.48 181.08 181.34 181.08L174.22 177.21" stroke="black" stroke-width="2" stroke-miterlimit="10" stroke-linecap="round"/>
<path d="M196.75 134.65C196.13 134.65 195.57 134.28 195.33 133.71L193.51 129.47L190.56 132.07C190.28 132.32 189.91 132.46 189.54 132.46C188.69 132.46 187.99 131.77 187.99 130.91V114.39C187.99 113.54 188.69 112.84 189.54 112.84C189.93 112.84 190.31 112.99 190.6 113.26L202.83 124.74C203.29 125.17 203.44 125.82 203.22 126.41C203 126.99 202.46 127.39 201.84 127.42L198.06 127.59L200 131.48C200.38 132.24 200.07 133.17 199.31 133.56L197.44 134.5C197.23 134.61 196.99 134.66 196.75 134.66V134.65Z" fill="black"/>
<path d="M189.55 113.85C189.68 113.85 189.81 113.9 189.92 114L202.15 125.48C202.5 125.81 202.28 126.4 201.8 126.43L196.51 126.66C196.51 126.66 196.49 126.67 196.5 126.68L199.12 131.92C199.26 132.19 199.15 132.52 198.88 132.65L197.01 133.58C196.93 133.62 196.85 133.64 196.77 133.64C196.56 133.64 196.36 133.52 196.27 133.31L193.92 127.82C193.92 127.82 193.92 127.81 193.9 127.81C193.9 127.81 193.9 127.81 193.89 127.81L189.93 131.31C189.82 131.41 189.7 131.45 189.57 131.45C189.29 131.45 189.02 131.23 189.02 130.9V114.38C189.02 114.05 189.29 113.83 189.57 113.83M189.57 111.83C188.16 111.83 187.02 112.97 187.02 114.38V130.9C187.02 132.31 188.16 133.45 189.57 133.45C190.19 133.45 190.79 133.22 191.25 132.81L193.16 131.12L194.43 134.09C194.83 135.03 195.75 135.63 196.77 135.63C197.16 135.63 197.56 135.54 197.91 135.36L199.78 134.42C201.04 133.79 201.55 132.26 200.92 131L199.67 128.49L201.91 128.39C202.94 128.35 203.83 127.69 204.19 126.73C204.55 125.77 204.29 124.69 203.55 123.99L191.32 112.51C190.85 112.06 190.23 111.82 189.58 111.82L189.57 111.83Z" fill="white"/>
<path d="M59.8599 117.35L37.3199 142.88" stroke="black" stroke-width="3" stroke-linecap="round" stroke-linejoin="round"/>
<path d="M64.5199 123.55L52.4699 120C50.9799 119.56 49.1299 119.61 47.3399 120.14C45.5499 120.67 43.9499 121.63 42.8999 122.81C41.8499 123.99 41.4399 125.31 41.7599 126.45C42.0799 127.6 43.0899 128.49 44.5799 128.93L52.6199 131.3C54.1099 131.74 55.1299 132.63 55.4399 133.78C55.7599 134.93 55.3399 136.24 54.2999 137.42C53.2599 138.6 51.6599 139.57 49.8599 140.09C48.0699 140.62 46.2199 140.67 44.7299 140.23L31.0699 136.21" stroke="black" stroke-width="3" stroke-linecap="round" stroke-linejoin="round"/>
<path d="M267.3 57.98L284.83 87.18" stroke="black" stroke-width="3" stroke-linecap="round" stroke-linejoin="round"/>
<path d="M274.61 55.4199L267.58 65.8399C266.71 67.1299 266.2 68.8999 266.16 70.7699C266.12 72.6399 266.56 74.4499 267.37 75.8099C268.18 77.1699 269.31 77.9499 270.5 77.9999C271.69 78.0499 272.85 77.3499 273.72 76.0599L278.4 69.1099C279.27 67.8199 280.43 67.1199 281.62 67.1699C282.81 67.2199 283.94 67.9999 284.75 69.3599C285.56 70.7199 286 72.5299 285.96 74.3999C285.92 76.2699 285.41 78.0399 284.54 79.3299L276.58 91.1399" stroke="black" stroke-width="3" stroke-linecap="round" stroke-linejoin="round"/>
<path d="M122.42 103.6L116.42 109.6L110.42 103.6" stroke="black" stroke-width="3" stroke-linecap="round" stroke-linejoin="round"/>
<path d="M116.42 109.6V91.6001" stroke="black" stroke-width="3" stroke-linecap="round" stroke-linejoin="round"/>
<path d="M137.42 88.6001L131.42 82.6001L125.42 88.6001" stroke="black" stroke-width="3" stroke-linecap="round" stroke-linejoin="round"/>
<path d="M131.42 100.6V82.6001" stroke="black" stroke-width="3" stroke-linecap="round" stroke-linejoin="round"/>
</g>
<defs>
<clipPath id="clip0_555_1675">
<rect width="313" height="342.05" fill="white" transform="translate(0.5)"/>
</clipPath>
</defs>
</svg>
